Since Luc granted a divorce to Pascale ten years ago, he paid generous alimony and left a fine country house as long as their twin sons remain at home. Pascale always acted as if she was the provider and head of the household, even now the inseparable brothers are twenty. But she started a secret affair with Flemish neighbor, cook Jan, whose ambition is to start a restaurant and B&B with her. As the boys learn she wants to cancel her job and sell the house for the project, college-man Thierry, who has a steady girl Anne, naturally refuses to let her spend dad's money meant for them. Gentler François, content to remain a handyman, would consider letting her and maybe working in the 'family business'. This causes trouble, even after Pascale moves out to Gerda's indefinitely, leading to tragedy.


Format : AVi 
Format/Info : Audio Video Interleave 
File size : 800 MiB 
Duration : 1h 28mn 
Overall bit rate : 1 260 Kbps 
Writing application : FairUse Wizard - http://fairusewizard.com 
Writing library : The best and REALLY easy backup tool 
Video #0 
ID : 0 
Format : MPEG-4 Visual 
Format profile : AdvancedSimple@L5 
Format settings, BVOP : Yes 
Format settings, QPel : No 
Format settings, GMC : No warppoints 
Format settings, Matrix : Default (MPEG) 
Muxing mode : Packed bitstream 
Codec ID : XVID 
Codec ID/Hint : XviD 
Duration : 1h 28mn 
Bit rate : 1 122 Kbps 
Width : 656 pixels 
Height : 368 pixels 
Display aspect ratio : 16:9 
Frame rate : 25.000 fps 
Resolution : 24 bits 
Colorimetry : 4:2:0 
Scan type : Progressive 
Bits/(Pixel*Frame) : 0.186 
Stream size : 712 MiB (89%) 
Writing library : XviD 1.2.0.dev47 (UTC 2006-11-01) 
Audio #1 
ID : 1 
Format : MPEG Audio 
Format version : Version 1 
Format profile : Layer 3 
Codec ID : 55 
Codec ID/Hint : MP3 
Duration : 1h 28mn 
Bit rate mode : Constant 
Bit rate : 128 Kbps 
Channel(s) : 2 channels 
Sampling rate : 48.0 KHz 
Resolution : 16 bits 
Stream size : 81.3 MiB (10%) 
Alignment : Aligned on interleaves 
Interleave, duration : 40 ms (1.00 video frame) 
Interleave, preload duration : 504 ms 
Writing library : LAME3.97 
Encoding settings : -m j -V 4 -q 2 -lowpass 17 -b 128